{"title":"Kill Dil (2014) PDVD Rip The Shadow.mpg","uid":11465540,"size":963551236,"categoryP":"video","categoryS":"movies","magnet":"?xt=urn:btih:0948f186920fcd4f92ded30ff16fa9db7a0df4a7&amp;dn=Kill+Dil+%282014%29+PDVD+Rip+The+Shadow.mpg&amp;tr=udp%3A%2F%2Ftracker.openbittorrent.com%3A80&amp;tr=udp%3A%2F%2Fopen.demonii.com%3A1337&amp;tr=udp%3A%2F%2Ftracker.coppersurfer.tk%3A6969&amp;tr=udp%3A%2F%2Fexodus.desync.com%3A6969","seeders":1,"leechers":0,"uploader":"inovai","files":1,"time":1416028891,"description":"Kill Dil (2014) PDVD Rip The Shadow\n\nCover:\n &lt;a href=&quot;\nhttp://forum.primetimeshow.in/viewtopic.php?f=7&amp;t=814&quot; rel=&quot;nofollow&quot; target=&quot;_NEW&quot;&gt;\nhttp://forum.primetimeshow.in/viewtopic.php?f=7&amp;t=814&lt;/a&gt;\n\nScreenshots:\n &lt;a href=&quot;\nhttp://m.primetimeshow.in/share-D261_5466D466.html&quot; rel=&quot;nofollow&quot; target=&quot;_NEW&quot;&gt;\nhttp://m.primetimeshow.in/share-D261_5466D466.html&lt;/a&gt;\n\nGeneral\nComplete name : Kill Dil (2014) PDVD Rip The Shadow.mpg\nFormat : MPEG-PS\nFile size : 919 MiB\nDuration : 1h 57mn\nOverall bit rate mode : Variable\nOverall bit rate : 1 095 Kbps\nWriting library : encoded by TMPGEnc Video Mastering Works 5 Version. 5.0.5.32\n\nVideo\nID : 224 (0xE0)\nFormat : MPEG Video\nFormat version : Version 2\nFormat profile : Main@High\nFormat settings, BVOP : Yes\nFormat settings, Matrix : Custom\nFormat settings, GOP : Variable\nDuration : 1h 57mn\nBit rate mode : Variable\nBit rate : 962 Kbps\nMaximum bit rate : 8 000 Kbps\nWidth : 704 pixels\nHeight : 576 pixels\nDisplay aspect ratio : 4:3\nFrame rate : 25.000 fps\nStandard : NTSC\nColor space : YUV\nChroma subsampling : 4:2:0\nBit depth : 8 bits\nScan type : Progressive\nCompression mode : Lossy\nBits/(Pixel*Frame) : 0.095\nTime code of first frame : 00:00:00:00\nTime code source : Group of pictures header\nStream size : 807 MiB (88%)\nWriting library : TMPGEnc Video Mastering Works 5 Version. 5.0.5.32\n\nAudio\nID : 192 (0xC0)\nFormat : MPEG Audio\nFormat version : Version 1\nFormat profile : Layer 2\nDuration : 1h 57mn\nBit rate mode : Constant\nBit rate : 112 Kbps\nChannel count : 2 channels\nSampling rate : 48.0 KHz\nCompression mode : Lossy\nStream size : 94.0 MiB (10%)\n &lt;a href=&quot;\nhttp://i.imgur.com/iWSZsGD.jpg&quot; rel=&quot;nofollow&quot; target=&quot;_NEW&quot;&gt;\nhttp://i.imgur.com/iWSZsGD.jpg&lt;/a&gt;\n\nThanks to The Shadow!!\n\nSeed n Enjoy!!","torrent":{"xt":"urn:btih:0948f186920fcd4f92ded30ff16fa9db7a0df4a7","amp;dn":"Kill+Dil+%282014%29+PDVD+Rip+The+Shadow.mpg","amp;tr":["udp%3A%2F%2Ftracker.openbittorrent.com%3A80","udp%3A%2F%2Fopen.demonii.com%3A1337","udp%3A%2F%2Ftracker.coppersurfer.tk%3A6969","udp%3A%2F%2Fexodus.desync.com%3A6969"],"infoHash":"0948f186920fcd4f92ded30ff16fa9db7a0df4a7","infoHashBuffer":{"type":"Buffer","data":[9,72,241,134,146,15,205,79,146,222,211,15,241,111,169,219,122,13,244,167]},"announce":[],"urlList":[]}}